<?xml version="1.0" standalone="no"?>
<!DOCTYPE svg PUBLIC "-//W3C//DTD SVG 20010904//EN"
 "http://www.w3.org/TR/2001/REC-SVG-20010904/DTD/svg10.dtd">
<svg version="1.0" xmlns="http://www.w3.org/2000/svg"
 width="600.000000pt" height="500.000000pt" viewBox="0 0 600.000000 500.000000"
 preserveAspectRatio="xMidYMid meet">

<g transform="translate(0.000000,500.000000) scale(0.100000,-0.100000)"
fill="#000000" stroke="none">
<path d="M1107 3783 c-4 -3 -7 -330 -7 -725 0 -652 1 -719 16 -725 9 -3 87 11
173 31 198 47 343 72 501 86 147 14 241 7 369 -26 188 -48 302 -58 631 -58
209 1 356 6 468 17 204 21 387 21 578 1 103 -11 202 -14 319 -11 153 4 182 8
285 37 91 26 135 33 210 33 102 1 127 -5 324 -73 76 -26 132 -40 155 -38 l36
3 0 725 0 725 -2026 3 c-1114 1 -2029 -1 -2032 -5z m4033 -724 l0 -701 -32 7
c-18 4 -100 30 -183 58 -146 50 -153 52 -265 52 -99 0 -132 -5 -240 -34 -174
-47 -285 -50 -619 -20 -259 23 -262 23 -448 5 -539 -50 -937 -39 -1196 35
-182 51 -482 30 -867 -62 -69 -16 -133 -32 -142 -35 -17 -5 -18 27 -18 583 l0
588 95 -3 95 -3 0 -85 c0 -83 -1 -85 -39 -133 -21 -27 -50 -78 -64 -113 -94
-236 9 -493 244 -607 85 -41 86 -41 199 -41 112 0 114 0 197 41 283 137 368
476 180 722 -36 46 -37 50 -37 132 l0 85 58 0 c34 -1 65 -6 76 -15 32 -24 79
-19 109 13 35 36 34 62 -2 101 -35 37 -76 41 -114 11 -25 -20 -38 -21 -511
-20 l-486 1 0 70 0 69 2005 0 2005 0 0 -701z m-2930 547 c6 -8 10 -25 8 -38
-2 -18 -10 -24 -35 -26 -28 -3 -33 1 -39 23 -11 45 37 75 66 41z m-115 -26 c4
-7 -158 -10 -479 -10 -317 0 -486 3 -486 10 0 7 166 10 479 10 309 0 482 -4
486 -10z m-715 -115 c0 -37 -4 -65 -10 -65 -6 0 -10 28 -10 65 0 37 4 65 10
65 6 0 10 -28 10 -65z m524 18 c1 -24 0 -43 -3 -43 -2 0 -34 12 -70 27 -58 24
-79 27 -171 27 -92 0 -113 -3 -171 -27 -36 -15 -69 -27 -72 -27 -9 0 -9 75 0
84 4 3 114 5 246 4 l239 -3 2 -42z m56 -19 c0 -41 -4 -63 -10 -59 -5 3 -10 33
-10 66 0 33 4 59 10 59 6 0 10 -29 10 -66z m-113 -44 c88 -44 168 -124 213
-215 33 -67 35 -75 35 -180 0 -106 -1 -113 -36 -185 -86 -179 -280 -284 -465
-253 -300 52 -461 373 -324 644 29 57 107 136 168 171 83 47 133 58 244 54 86
-3 105 -7 165 -36z"/>
<path d="M2548 3713 c12 -2 30 -2 40 0 9 3 -1 5 -23 4 -22 0 -30 -2 -17 -4z"/>
<path d="M2465 3694 c-41 -21 -94 -73 -111 -109 l-14 -30 17 25 c42 58 67 80
115 104 29 14 45 26 37 26 -7 0 -27 -7 -44 -16z"/>
<path d="M2669 3677 c8 -10 10 -21 5 -26 -5 -4 -32 -26 -61 -50 -63 -51 -126
-143 -150 -217 -14 -46 -20 -54 -42 -55 -24 -2 -24 -2 -3 -6 15 -3 22 -12 22
-27 0 -18 -8 -25 -38 -34 -55 -17 -114 -72 -147 -138 -34 -69 -46 -195 -25
-259 13 -39 65 -105 82 -105 6 0 -1 9 -16 21 -14 11 -33 33 -40 47 -61 120 15
355 136 418 41 21 45 18 52 -37 11 -84 88 -140 127 -92 13 15 12 15 -9 4 -33
-18 -69 -6 -87 29 -18 34 -19 62 -4 128 9 44 14 51 51 68 23 10 76 53 118 94
l77 75 -73 -67 c-40 -37 -92 -77 -114 -88 l-42 -21 7 23 c32 103 175 292 206
273 8 -6 10 -4 4 5 -4 7 -2 16 6 22 12 8 11 9 -1 5 -8 -2 -24 3 -35 12 -18 15
-19 15 -6 -2z"/>
<path d="M2730 3676 c0 -2 9 -6 20 -9 11 -3 18 -1 14 4 -5 9 -34 13 -34 5z"/>
<path d="M2736 3558 c-8 -12 -12 -26 -8 -32 4 -7 8 -3 10 9 2 11 9 26 14 33 6
6 8 12 5 12 -3 0 -13 -10 -21 -22z"/>
<path d="M2321 3504 c0 -11 3 -14 6 -6 3 7 2 16 -1 19 -3 4 -6 -2 -5 -13z"/>
<path d="M2732 3460 c0 -14 2 -19 5 -12 2 6 2 18 0 25 -3 6 -5 1 -5 -13z"/>
<path d="M2764 3418 c-10 -18 -26 -51 -36 -73 -14 -32 -15 -36 -2 -20 23 29
66 116 60 122 -2 3 -13 -10 -22 -29z"/>
<path d="M2914 3373 c-27 -29 -48 -53 -45 -53 10 0 111 81 111 90 0 23 -19 12
-66 -37z"/>
<path d="M2330 3381 c0 -9 49 -56 53 -50 1 2 -10 16 -25 31 -15 15 -28 23 -28
19z"/>
<path d="M3410 3364 c59 -8 138 -8 133 -1 -2 4 -39 6 -81 6 -42 -1 -66 -3 -52
-5z"/>
<path d="M3647 3363 c-3 -5 19 -8 48 -8 29 0 51 3 48 8 -2 4 -24 7 -48 7 -24
0 -46 -3 -48 -7z"/>
<path d="M3807 3333 c-13 -21 -28 -45 -33 -53 -5 -8 -11 -45 -14 -82 l-5 -68
32 0 32 0 3 113 3 112 44 3 c28 2 47 -1 53 -10 8 -10 9 -10 5 2 -2 10 -19 16
-50 18 -44 3 -47 1 -70 -35z"/>
<path d="M3996 3306 c-32 -57 -36 -73 -36 -134 0 -86 6 -102 36 -102 24 0 24
-1 24 -110 0 -103 -2 -115 -30 -170 -26 -51 -30 -71 -30 -138 0 -56 4 -83 14
-91 9 -8 48 -11 112 -9 l98 3 32 55 c18 30 33 57 34 60 0 3 -48 5 -107 5
l-108 0 -3 93 -3 92 31 0 30 0 0 165 0 165 -30 0 -30 0 0 85 0 84 113 4 112 3
-112 2 -111 2 -36 -64z"/>
<path d="M4347 3363 c-3 -5 19 -8 48 -8 29 0 51 3 48 8 -2 4 -24 7 -48 7 -24
0 -46 -3 -48 -7z"/>
<path d="M4707 3363 c-3 -5 19 -8 48 -8 29 0 51 3 48 8 -2 4 -24 7 -48 7 -24
0 -46 -3 -48 -7z"/>
<path d="M3349 3343 c-13 -17 -13 -17 6 -3 11 8 22 16 24 17 2 2 0 3 -6 3 -6
0 -17 -8 -24 -17z"/>
<path d="M3607 3293 l-27 -51 2 -344 3 -343 46 -3 47 -3 36 67 c20 36 34 69
31 72 -3 3 -5 0 -5 -6 0 -10 -84 -18 -92 -9 -1 1 -5 152 -8 336 l-5 334 -28
-50z"/>
<path d="M4307 3293 l-27 -51 2 -344 3 -343 126 -3 127 -3 37 66 c20 37 34 69
31 72 -3 4 -6 1 -6 -5 0 -9 -36 -12 -125 -12 -69 0 -126 1 -127 3 -1 1 -5 152
-8 336 l-5 334 -28 -50z"/>
<path d="M4667 3293 l-27 -51 2 -344 3 -343 126 -3 127 -3 37 66 c20 37 34 69
31 72 -3 4 -6 1 -6 -5 0 -9 -36 -12 -125 -12 -69 0 -126 1 -127 3 -1 1 -5 152
-8 336 l-5 334 -28 -50z"/>
<path d="M3300 3263 c-49 -93 -52 -110 -48 -368 3 -225 4 -243 25 -281 26 -49
60 -64 144 -64 l57 0 37 66 c20 37 33 69 30 72 -3 3 -5 0 -5 -6 0 -8 -24 -12
-74 -12 -65 0 -78 3 -105 26 -17 14 -35 42 -41 62 -15 57 -12 478 4 525 8 20
12 37 11 37 -2 0 -17 -26 -35 -57z"/>
<path d="M2690 3273 c-7 -16 -12 -34 -11 -42 1 -7 -2 -10 -8 -7 -5 4 -13 1
-17 -5 -4 -8 -3 -9 4 -5 17 10 16 7 -28 -104 -101 -254 -160 -332 -265 -352
-34 -6 -32 -7 14 -3 94 8 179 75 228 181 13 29 35 102 48 162 14 61 32 129 40
153 18 49 14 62 -5 22z"/>
<path d="M3388 3289 c-10 -5 -18 -15 -18 -22 0 -7 4 -6 10 3 5 9 32 17 67 21
l58 6 -50 1 c-27 1 -58 -3 -67 -9z"/>
<path d="M4103 3293 c20 -2 54 -2 75 0 20 2 3 4 -38 4 -41 0 -58 -2 -37 -4z"/>
<path d="M2500 3246 c0 -2 8 -10 18 -17 15 -13 16 -12 3 4 -13 16 -21 21 -21
13z"/>
<path d="M2791 3214 c-72 -65 -104 -177 -65 -232 20 -29 35 -28 65 6 l24 27
-27 -24 c-17 -15 -33 -21 -44 -17 -24 9 -12 82 27 167 35 76 60 104 84 95 9
-3 13 -2 10 4 -11 18 -35 10 -74 -26z"/>
<path d="M2979 3222 c-16 -15 -45 -54 -62 -86 -48 -90 -91 -108 -62 -26 18 50
18 60 5 60 -18 0 -43 -66 -36 -94 7 -30 31 -34 58 -9 17 15 18 14 18 -23 0
-45 23 -84 49 -84 9 0 30 15 47 33 l29 32 -31 -27 c-37 -34 -51 -35 -65 -4
-27 58 70 266 112 240 8 -4 10 -3 5 4 -12 19 -34 14 -67 -16z"/>
<path d="M3541 3203 c-1 -9 -20 -13 -60 -13 -67 0 -71 -5 -71 -76 0 -44 0 -44
35 -44 31 0 37 5 70 61 20 34 34 67 31 73 -3 7 -5 7 -5 -1z"/>
<path d="M2629 3183 c-13 -16 -12 -17 4 -4 16 13 21 21 13 21 -2 0 -10 -8 -17
-17z"/>
<path d="M3020 3165 c-27 -36 -32 -56 -13 -62 15 -5 45 52 41 77 -2 15 -7 13
-28 -15z"/>
<path d="M2541 3174 c0 -11 3 -14 6 -6 3 7 2 16 -1 19 -3 4 -6 -2 -5 -13z"/>
<path d="M4190 3138 l0 -53 30 47 c17 27 30 50 30 53 0 3 -13 5 -30 5 -30 0
-30 -1 -30 -52z"/>
<path d="M4520 3054 c37 -8 88 -9 84 -2 -3 4 -26 7 -52 7 -26 -1 -40 -3 -32
-5z"/>
<path d="M4880 3054 c37 -8 88 -9 84 -2 -3 4 -26 7 -52 7 -26 -1 -40 -3 -32
-5z"/>
<path d="M2409 3029 c-8 -15 -8 -19 0 -15 7 4 11 -1 11 -13 0 -12 4 -21 10
-21 14 0 31 37 24 54 -9 23 -31 20 -45 -5z"/>
<path d="M4478 2991 c-18 -31 -28 -64 -28 -90 0 -39 2 -41 30 -41 l30 0 0 90
c0 50 -1 90 -2 90 -2 0 -15 -22 -30 -49z"/>
<path d="M4838 2991 c-18 -31 -28 -64 -28 -90 0 -39 2 -41 30 -41 l30 0 0 90
c0 50 -1 90 -2 90 -2 0 -15 -22 -30 -49z"/>
<path d="M3733 3023 c26 -2 68 -2 95 0 26 2 4 3 -48 3 -52 0 -74 -1 -47 -3z"/>
<path d="M2391 2974 c0 -11 3 -14 6 -6 3 7 2 16 -1 19 -3 4 -6 -2 -5 -13z"/>
<path d="M2480 2945 c-27 -29 -55 -32 -69 -7 -6 9 -11 12 -11 7 0 -16 22 -35
40 -35 9 0 29 14 45 30 16 17 26 30 24 30 -3 0 -16 -11 -29 -25z"/>
<path d="M3756 2753 c3 -98 7 -184 10 -190 2 -8 21 -13 47 -13 42 0 43 1 80
65 40 69 45 84 23 66 -8 -7 -32 -11 -53 -9 l-38 3 -3 128 -3 127 -34 0 -35 0
6 -177z"/>
<path d="M3435 2864 c47 -7 113 -8 108 -1 -2 4 -32 6 -66 6 -34 -1 -53 -3 -42
-5z"/>
<path d="M4190 2866 c0 -2 14 -6 30 -8 17 -3 30 -1 30 4 0 4 -13 8 -30 8 -16
0 -30 -2 -30 -4z"/>
<path d="M3370 2793 c0 -20 36 -33 87 -32 l48 2 -58 6 c-35 4 -62 12 -67 21
-6 10 -10 11 -10 3z"/>
<path d="M4103 2763 c20 -2 54 -2 75 0 20 2 3 4 -38 4 -41 0 -58 -2 -37 -4z"/>
<path d="M4433 2763 c26 -2 67 -2 90 0 23 2 2 3 -48 3 -49 0 -68 -1 -42 -3z"/>
<path d="M4793 2763 c26 -2 67 -2 90 0 23 2 2 3 -48 3 -49 0 -68 -1 -42 -3z"/>
<path d="M1605 3443 c-140 -21 -264 -113 -328 -242 -30 -62 -32 -72 -32 -176
0 -103 2 -114 32 -178 42 -89 122 -168 210 -210 63 -29 76 -31 173 -31 97 0
110 2 173 31 264 124 331 473 129 677 -53 54 -106 88 -172 110 -51 17 -141 26
-185 19z m198 -63 c75 -28 163 -109 202 -187 28 -54 30 -66 30 -168 0 -101 -2
-115 -29 -170 -98 -199 -333 -273 -536 -169 -128 65 -215 246 -190 396 39 243
289 386 523 298z"/>
<path d="M1624 3256 c-3 -7 -4 -38 -2 -67 2 -40 7 -54 18 -54 11 0 16 15 20
57 3 32 4 62 2 68 -5 15 -32 12 -38 -4z"/>
<path d="M1541 3206 c-19 -23 -10 -71 14 -71 15 0 20 7 21 32 2 39 -18 60 -35
39z"/>
<path d="M1714 3207 c-10 -27 0 -72 16 -72 11 0 15 11 15 39 0 40 -20 61 -31
33z"/>
<path d="M1449 3098 c-6 -93 23 -202 57 -215 8 -3 12 -9 9 -14 -3 -4 -12 -6
-20 -3 -19 8 -60 -15 -48 -27 11 -11 367 -14 384 -4 18 12 -12 37 -38 30 -28
-7 -30 6 -3 30 11 10 22 26 25 36 5 14 16 19 43 19 20 0 45 6 54 14 24 18 37
57 27 83 -9 25 -56 51 -81 46 -9 -2 -19 1 -23 6 -10 17 -385 15 -386 -1z m351
-65 c0 -51 -35 -118 -74 -143 -67 -41 -170 -19 -212 46 -17 26 -36 119 -26
129 3 3 74 5 159 5 l153 0 0 -37z m100 -28 c-19 -23 -66 -16 -62 10 2 11 11
26 20 33 13 10 20 9 36 -7 16 -17 17 -22 6 -36z"/>
</g>
</svg>
